[Header]
FileType HTR
DataType HTRS
FileVersion 1
NumSegments 64
NumFrames 4
DataFrameRate 30
EulerRotationOrder ZYX
CalibrationUnits mm
RotationUnits Degrees
GlobalAxisofGravity Y
BoneLengthAxis Y
ScaleFactor 1.0
[SegmentNames&Hierarchy]
Hips	GLOBAL
Spine	Hips
Spine1	Spine
Spine2	Spine1
Neck	Spine2
Head	Neck
LeftEye	Head
RightEye	Head
LeftShoulder	Spine2
LeftArm	LeftShoulder
LeftForeArm	LeftArm
LeftHand	LeftForeArm
LeftHandThumb1	LeftHand
LeftHandThumb2	LeftHandThumb1
LeftHandThumb3	LeftHandThumb2
LeftHandThumb4	LeftHandThumb3
LeftHandIndex1	LeftHand
LeftHandIndex2	LeftHandIndex1
LeftHandIndex3	LeftHandIndex2
LeftHandIndex4	LeftHandIndex3
LeftHandMiddle1	LeftHand
LeftHandMiddle2	LeftHandMiddle1
LeftHandMiddle3	LeftHandMiddle2
LeftHandMiddle4	LeftHandMiddle3
LeftHandRing1	LeftHand
LeftHandRing2	LeftHandRing1
LeftHandRing3	LeftHandRing2
LeftHandRing4	LeftHandRing3
LeftHandPinky1	LeftHand
LeftHandPinky2	LeftHandPinky1
LeftHandPinky3	LeftHandPinky2
LeftHandPinky4	LeftHandPinky3
RightShoulder	Spine2
RightArm	RightShoulder
RightForeArm	RightArm
RightHand	RightForeArm
RightHandPinky1	RightHand
RightHandPinky2	RightHandPinky1
RightHandPinky3	RightHandPinky2
RightHandPinky4	RightHandPinky3
RightHandRing1	RightHand
RightHandRing2	RightHandRing1
RightHandRing3	RightHandRing2
RightHandRing4	RightHandRing3
RightHandMiddle1	RightHand
RightHandMiddle2	RightHandMiddle1
RightHandMiddle3	RightHandMiddle2
RightHandMiddle4	RightHandMiddle3
RightHandIndex1	RightHand
RightHandIndex2	RightHandIndex1
RightHandIndex3	RightHandIndex2
RightHandIndex4	RightHandIndex3
RightHandThumb1	RightHand
RightHandThumb2	RightHandThumb1
RightHandThumb3	RightHandThumb2
RightHandThumb4	RightHandThumb3
LeftUpLeg	Hips
LeftLeg	LeftUpLeg
LeftFoot	LeftLeg
LeftToeBase	LeftFoot
RightUpLeg	Hips
RightLeg	RightUpLeg
RightFoot	RightLeg
RightToeBase	RightFoot
[BasePosition]
Hips	0	0	0	0	0	0	1
Spine	0	0	0	0	0	0	1
Spine1	0	0	0	0	0	0	1
Spine2	0	0	0	0	0	0	1
Neck	0	0	0	0	0	0	1
Head	0	0	0	0	0	0	1
LeftEye	0	0	0	0	0	0	1
RightEye	0	0	0	0	0	0	1
LeftShoulder	0	0	0	0	0	0	1
LeftArm	0	0	0	0	0	0	1
LeftForeArm	0	0	0	0	0	0	1
LeftHand	0	0	0	0	0	0	1
LeftHandThumb1	0	0	0	0	0	0	1
LeftHandThumb2	0	0	0	0	0	0	1
LeftHandThumb3	0	0	0	0	0	0	1
LeftHandThumb4	0	0	0	0	0	0	1
LeftHandIndex1	0	0	0	0	0	0	1
LeftHandIndex2	0	0	0	0	0	0	1
LeftHandIndex3	0	0	0	0	0	0	1
LeftHandIndex4	0	0	0	0	0	0	1
LeftHandMiddle1	0	0	0	0	0	0	1
LeftHandMiddle2	0	0	0	0	0	0	1
LeftHandMiddle3	0	0	0	0	0	0	1
LeftHandMiddle4	0	0	0	0	0	0	1
LeftHandRing1	0	0	0	0	0	0	1
LeftHandRing2	0	0	0	0	0	0	1
LeftHandRing3	0	0	0	0	0	0	1
LeftHandRing4	0	0	0	0	0	0	1
LeftHandPinky1	0	0	0	0	0	0	1
LeftHandPinky2	0	0	0	0	0	0	1
LeftHandPinky3	0	0	0	0	0	0	1
LeftHandPinky4	0	0	0	0	0	0	1
RightShoulder	0	0	0	0	0	0	1
RightArm	0	0	0	0	0	0	1
RightForeArm	0	0	0	0	0	0	1
RightHand	0	0	0	0	0	0	1
RightHandPinky1	0	0	0	0	0	0	1
RightHandPinky2	0	0	0	0	0	0	1
RightHandPinky3	0	0	0	0	0	0	1
RightHandPinky4	0	0	0	0	0	0	1
RightHandRing1	0	0	0	0	0	0	1
RightHandRing2	0	0	0	0	0	0	1
RightHandRing3	0	0	0	0	0	0	1
RightHandRing4	0	0	0	0	0	0	1
RightHandMiddle1	0	0	0	0	0	0	1
RightHandMiddle2	0	0	0	0	0	0	1
RightHandMiddle3	0	0	0	0	0	0	1
RightHandMiddle4	0	0	0	0	0	0	1
RightHandIndex1	0	0	0	0	0	0	1
RightHandIndex2	0	0	0	0	0	0	1
RightHandIndex3	0	0	0	0	0	0	1
RightHandIndex4	0	0	0	0	0	0	1
RightHandThumb1	0	0	0	0	0	0	1
RightHandThumb2	0	0	0	0	0	0	1
RightHandThumb3	0	0	0	0	0	0	1
RightHandThumb4	0	0	0	0	0	0	1
LeftUpLeg	0	0	0	0	0	0	1
LeftLeg	0	0	0	0	0	0	1
LeftFoot	0	0	0	0	0	0	1
LeftToeBase	0	0	0	0	0	0	1
RightUpLeg	0	0	0	0	0	0	1
RightLeg	0	0	0	0	0	0	1
RightFoot	0	0	0	0	0	0	1
RightToeBase	0	0	0	0	0	0	1
[Hips]
42	-13.27907467	1022.148804	16.48678017	0.08658707142	-4.579304695	-5.417527676	1.0
43	-12.86935425	1023.095703	17.59036827	-0.3805981278	-4.947766304	-5.074490547	1.0
44	-12.48559475	1024.039429	18.63960266	-0.8356701732	-5.298103809	-4.742251873	1.0
45	-12.0711031	1024.982056	19.07522583	-1.126142502	-5.564040184	-4.516628265	1.0
[Spine]
42	0	101.8159943	1.315000057	3.897042513	1.554822087	2.351689339	1.0
43	0	101.8159943	1.315000057	3.799752712	1.530786753	2.405984879	1.0
44	0	101.8159943	1.315000057	3.707560778	1.507886887	2.460380316	1.0
45	0	101.8159943	1.315000057	3.681295156	1.481794834	2.531742096	1.0
[Spine1]
42	0	100.8349991	-10.00800037	1.660387039	0.5572531819	0.9714704752	1.0
43	0	100.8349991	-10.00800037	1.555870056	0.524354279	1.052230954	1.0
44	0	100.8349991	-10.00800037	1.456719398	0.4933592975	1.13162303	1.0
45	0	100.8349991	-10.00800037	1.429624557	0.4550741911	1.211510539	1.0
[Spine2]
42	0	91	-13.73399925	1.637985826	0.5848160386	0.9821548462	1.0
43	0	91	-13.73399925	1.533211946	0.5501654744	1.062597513	1.0
44	0	91	-13.73399925	1.433792233	0.5174122453	1.141695023	1.0
45	0	91	-13.73399925	1.406155586	0.4770584106	1.221443176	1.0
[Neck]
42	0	166.7169952	-25.16200066	7.129883766	0.7378761172	-1.635462284	1.0
43	0	166.7169952	-25.16200066	7.18181181	0.7294536233	-1.545285344	1.0
44	0	166.7169952	-25.16200066	7.229752541	0.7167915106	-1.449286103	1.0
45	0	166.7169952	-25.16200066	7.167244434	0.6678420901	-1.307099581	1.0
[Head]
42	0	96.17900085	16.84999847	-10.7351799	3.65534091	-2.840211391	1.0
43	0	96.17900085	16.84999847	-9.758906364	3.812611818	-3.106334925	1.0
44	0	96.17900085	16.84999847	-8.833714485	3.932142019	-3.356466532	1.0
45	0	96.17900085	16.84999847	-8.641468048	3.880835295	-3.343999624	1.0
[LeftEye]
42	30.6760006	64.09500122	92.83599854	0	0	0	1.0
43	30.6760006	64.09500122	92.83599854	0	0	0	1.0
44	30.6760006	64.09500122	92.83599854	0	0	0	1.0
45	30.6760006	64.09500122	92.83599854	0	0	0	1.0
[RightEye]
42	-30.6760006	64.09500122	92.83499908	0	0	0	1.0
43	-30.6760006	64.09500122	92.83499908	0	0	0	1.0
44	-30.6760006	64.09500122	92.83499908	0	0	0	1.0
45	-30.6760006	64.09500122	92.83499908	0	0	0	1.0
[LeftShoulder]
42	45.70400238	109.4599991	-26.28000069	4.97458601	-16.08966446	-14.72950459	1.0
43	45.70400238	109.4599991	-26.28000069	4.922756672	-16.02282906	-14.52168179	1.0
44	45.70400238	109.4599991	-26.28000069	4.874350548	-15.96365261	-14.32278442	1.0
45	45.70400238	109.4599991	-26.28000069	4.862453938	-16.03193855	-14.14333725	1.0
[LeftArm]
42	105.923996	-5.24600029	-22.32099915	14.98019409	-4.409951687	-65.23296356	1.0
43	105.923996	-5.24600029	-22.32099915	15.14279747	-3.811966181	-65.95802307	1.0
44	105.923996	-5.24600029	-22.32099915	15.29164696	-3.238380909	-66.63599396	1.0
45	105.923996	-5.24600029	-22.32099915	15.80516434	-3.010915041	-67.12728882	1.0
[LeftForeArm]
42	278.414978	-0.0009999999311	0	2.237804893e-07	-0.2286622673	-0.0002069402253	1.0
43	278.414978	-0.0009999999311	0	-5.710617756e-07	-0.2834653258	-0.0002031185722	1.0
44	278.414978	-0.0009999999311	0	-9.984098597e-07	-0.3220871389	-0.0002005292772	1.0
45	278.414978	-0.0009999999311	0	2.494329237e-06	-0.5205863118	-0.0002091740462	1.0
[LeftHand]
42	283.2879944	0	0	-32.63952637	-4.026400089	-2.225012541	1.0
43	283.2879944	0	0	-32.80532074	-4.28994751	-2.674544573	1.0
44	283.2879944	0	0	-32.94979858	-4.553571224	-3.118818521	1.0
45	283.2879944	0	0	-33.19800949	-4.667696953	-3.052906036	1.0
[LeftHandThumb1]
42	24.6609993	-15.75	26.8239994	-1.041831732	2.224025965	4.49238348	1.0
43	24.6609993	-15.75	26.8239994	-1.140682817	2.181349754	4.505745888	1.0
44	24.6609993	-15.75	26.8239994	-1.193515658	2.142946482	4.487552166	1.0
45	24.6609993	-15.75	26.8239994	-1.203223109	2.108117342	4.438916206	1.0
[LeftHandThumb2]
42	32.29800034	-18.64699936	18.64699936	19.78900719	16.64361	18.20505333	1.0
43	32.29800034	-18.64699936	18.64699936	19.75821495	16.56700134	17.99774742	1.0
44	32.29800034	-18.64699936	18.64699936	19.72961998	16.47530174	17.81248474	1.0
45	32.29800034	-18.64699936	18.64699936	19.68334961	16.38656235	17.62889099	1.0
[LeftHandThumb3]
42	26.52600098	-15.31499958	15.31499958	-12.95892429	4.686118126	10.61791897	1.0
43	26.52600098	-15.31499958	15.31499958	-12.91090965	4.627072811	10.71866608	1.0
44	26.52600098	-15.31499958	15.31499958	-12.87025642	4.578938007	10.81661797	1.0
45	26.52600098	-15.31499958	15.31499958	-12.82917023	4.543236732	10.9431324	1.0
[LeftHandThumb4]
42	19.54599953	-11.28499985	11.28499985	0	0	0	1.0
43	19.54599953	-11.28499985	11.28499985	0	0	0	1.0
44	19.54599953	-11.28499985	11.28499985	0	0	0	1.0
45	19.54599953	-11.28499985	11.28499985	0	0	0	1.0
[LeftHandIndex1]
42	91.09299469	-5.170999527	22.60099792	0.533028245	-0.7098786831	-8.988046646	1.0
43	91.09299469	-5.170999527	22.60099792	0.5337203741	-0.7346413136	-8.760622978	1.0
44	91.09299469	-5.170999527	22.60099792	0.5386239886	-0.7590886354	-8.52703476	1.0
45	91.09299469	-5.170999527	22.60099792	0.5820993185	-0.800111115	-8.064395905	1.0
[LeftHandIndex2]
42	36.76399994	0	0	-0.2648906112	1.739379644	-17.31694031	1.0
43	36.76399994	0	0	-0.2651761472	1.740293741	-17.32633591	1.0
44	36.76399994	0	0	-0.2655706704	1.74155736	-17.33932304	1.0
45	36.76399994	0	0	-0.2671817541	1.746705413	-17.39224243	1.0
[LeftHandIndex3]
42	28.83100128	0	0	-0.05657273903	0.8112447262	-7.978029251	1.0
43	28.83100128	0	0	-0.05670683458	0.8121964931	-7.987452984	1.0
44	28.83100128	0	0	-0.05689132959	0.8135095239	-8.000452995	1.0
45	28.83100128	0	0	-0.05764131621	0.8188453913	-8.053273201	1.0
[LeftHandIndex4]
42	23.92700005	0	0	0	0	0	1.0
43	23.92700005	0	0	0	0	0	1.0
44	23.92700005	0	0	0	0	0	1.0
45	23.92700005	0	0	0	0	0	1.0
[LeftHandMiddle1]
42	95.33399963	0	0	-0.9580686688	2.742788553	-18.07332993	1.0
43	95.33399963	0	0	-0.931214273	2.724765062	-17.69634247	1.0
44	95.33399963	0	0	-0.9030159712	2.709949732	-17.29875755	1.0
45	95.33399963	0	0	-0.8354110122	2.7294662	-16.31849289	1.0
[LeftHandMiddle2]
42	36.98199844	0	0	-0.2586708963	1.719309092	-17.11077118	1.0
43	36.98199844	0	0	-0.2593305111	1.721443534	-17.1326828	1.0
44	36.98199844	0	0	-0.2599817812	1.723561168	-17.15441132	1.0
45	36.98199844	0	0	-0.2590255141	1.720457911	-17.1225605	1.0
[LeftHandMiddle3]
42	29.50900078	0	0	-0.2897660434	1.817201853	-18.11852264	1.0
43	29.50900078	0	0	-0.290458709	1.819310188	-18.14029884	1.0
44	29.50900078	0	0	-0.2911424339	1.821401119	-18.16188431	1.0
45	29.50900078	0	0	-0.2901200056	1.818282604	-18.12964821	1.0
[LeftHandMiddle4]
42	28.3390007	0	0	0	0	0	1.0
43	28.3390007	0	0	0	0	0	1.0
44	28.3390007	0	0	0	0	0	1.0
45	28.3390007	0	0	0	0	0	1.0
[LeftHandRing1]
42	91.04499817	-0.4390000105	-18.65100098	-1.5019449	3.749933004	-25.21227837	1.0
43	91.04499817	-0.4390000105	-18.65100098	-1.48407352	3.748708725	-24.99212456	1.0
44	91.04499817	-0.4390000105	-18.65100098	-1.466578126	3.747555017	-24.77634621	1.0
45	91.04499817	-0.4390000105	-18.65100098	-1.439383864	3.742162466	-24.43704033	1.0
[LeftHandRing2]
42	31.54000092	0	0	-0.5021330118	2.368105888	-23.91581345	1.0
43	31.54000092	0	0	-0.4900466502	2.341193199	-23.6261673	1.0
44	31.54000092	0	0	-0.4781529903	2.314654112	-23.34063339	1.0
45	31.54000092	0	0	-0.4634191096	2.280232906	-22.97305107	1.0
[LeftHandRing3]
42	29.37700081	0	0	-0.3835738599	2.080480814	-20.86145782	1.0
43	29.37700081	0	0	-0.3728226423	2.052657604	-20.56869698	1.0
44	29.37700081	0	0	-0.3622456193	2.025220633	-20.28009224	1.0
45	29.37700081	0	0	-0.3492259085	1.98965776	-19.90849304	1.0
[LeftHandRing4]
42	26.47500038	0	0	0	0	0	1.0
43	26.47500038	0	0	0	0	0	1.0
44	26.47500038	0	0	0	0	0	1.0
45	26.47500038	0	0	0	0	0	1.0
[LeftHandPinky1]
42	80.77799988	-4.887000084	-38.06099701	-2.182139158	5.21747303	-29.66573334	1.0
43	80.77799988	-4.887000084	-38.06099701	-2.12829566	5.221137047	-29.34279251	1.0
44	80.77799988	-4.887000084	-38.06099701	-2.062582493	5.230566502	-28.97152138	1.0
45	80.77799988	-4.887000084	-38.06099701	-1.933990955	5.29732132	-28.49906349	1.0
[LeftHandPinky2]
42	36	0	0	-0.3003820777	1.849781036	-18.45462227	1.0
43	36	0	0	-0.2987884879	1.844606161	-18.40154457	1.0
44	36	0	0	-0.2964103818	1.837367535	-18.32680511	1.0
45	36	0	0	-0.2950058877	1.833126307	-18.28299713	1.0
[LeftHandPinky3]
42	21.14200211	0	0	-0.2720721662	1.762727857	-17.55652237	1.0
43	21.14200211	0	0	-0.2705735862	1.757572412	-17.50389481	1.0
44	21.14200211	0	0	-0.2683214545	1.750335813	-17.42955017	1.0
45	21.14200211	0	0	-0.266982466	1.746067524	-17.38563538	1.0
[LeftHandPinky4]
42	19.75699997	0	0	0	0	0	1.0
43	19.75699997	0	0	0	0	0	1.0
44	19.75699997	0	0	0	0	0	1.0
45	19.75699997	0	0	0	0	0	1.0
[RightShoulder]
42	-45.70000076	109.4620056	-26.28000069	5.488435268	16.02867317	14.69743729	1.0
43	-45.70000076	109.4620056	-26.28000069	5.405282497	15.56285477	15.01386642	1.0
44	-45.70000076	109.4620056	-26.28000069	5.329844475	15.13656521	15.30957794	1.0
45	-45.70000076	109.4620056	-26.28000069	5.325166702	15.03804684	15.51307201	1.0
[RightArm]
42	-105.9280014	-5.248000145	-22.32099915	28.81316376	3.731039047	61.85512161	1.0
43	-105.9280014	-5.248000145	-22.32099915	28.2782383	3.378019571	62.53447723	1.0
44	-105.9280014	-5.248000145	-22.32099915	27.86784554	3.022191286	63.1255722	1.0
45	-105.9280014	-5.248000145	-22.32099915	28.42077446	2.67589736	63.4066658	1.0
[RightForeArm]
42	-278.414978	0	0	-5.267113465e-06	7.525987148	-4.312182227e-06	1.0
43	-278.414978	0	0	-5.75004924e-06	7.10068512	-5.976502962e-06	1.0
44	-278.414978	0	0	-5.873493592e-06	6.716875553	-7.080177511e-06	1.0
45	-278.414978	0	0	-3.023450518e-06	6.668969154	-4.180435553e-06	1.0
[RightHand]
42	-283.2879944	0	0.0009999999311	-25.67351151	4.91619873	5.34173584	1.0
43	-283.2879944	0	0.0009999999311	-26.46672249	5.5297575	5.611841202	1.0
44	-283.2879944	0	0.0009999999311	-27.20371246	6.098808289	5.876840115	1.0
45	-283.2879944	0	0.0009999999311	-27.89671707	6.730763912	6.034003735	1.0
[RightHandPinky1]
42	-80.76699829	-4.885000229	-38.06000137	-2.192600012	-5.037183285	35.37319183	1.0
43	-80.76699829	-4.885000229	-38.06000137	-2.223988295	-5.095595837	35.82261276	1.0
44	-80.76699829	-4.885000229	-38.06000137	-2.244448423	-5.142388344	36.12762833	1.0
45	-80.76699829	-4.885000229	-38.06000137	-2.174995422	-5.058146477	35.20429611	1.0
[RightHandPinky2]
42	-36	0	0.0009999999311	-0.2315874994	-1.447531581	18.19902802	1.0
43	-36	0	0.0009999999311	-0.2309625894	-1.445607781	18.17403793	1.0
44	-36	0	0.0009999999311	-0.2299083918	-1.442373037	18.13200188	1.0
45	-36	0	0.0009999999311	-0.2235985547	-1.422940016	17.87949944	1.0
[RightHandPinky3]
42	-21.14200211	0	0	-0.209633559	-1.378904939	17.28906441	1.0
43	-21.14200211	0	0	-0.2091004401	-1.377170563	17.26665688	1.0
44	-21.14200211	0	0	-0.208150655	-1.374093056	17.22688103	1.0
45	-21.14200211	0	0	-0.2020746619	-1.354344249	16.97167969	1.0
[RightHandPinky4]
42	-19.75699997	0	0	0	0	0	1.0
43	-19.75699997	0	0	0	0	0	1.0
44	-19.75699997	0	0	0	0	0	1.0
45	-19.75699997	0	0	0	0	0	1.0
[RightHandRing1]
42	-91.03599548	-0.4390000105	-18.65100098	-1.518061876	-3.831410408	27.2972126	1.0
43	-91.03599548	-0.4390000105	-18.65100098	-1.498084426	-4.207294941	27.01660728	1.0
44	-91.03599548	-0.4390000105	-18.65100098	-1.469114423	-4.572335243	26.61137962	1.0
45	-91.03599548	-0.4390000105	-18.65100098	-1.314969897	-5.163045883	24.45076942	1.0
[RightHandRing2]
42	-31.54000092	0	0	-0.424543649	-1.932230711	24.6317215	1.0
43	-31.54000092	0	0	-0.3953498304	-1.869856596	23.78011513	1.0
44	-31.54000092	0	0	-0.3653399646	-1.804434299	22.88995934	1.0
45	-31.54000092	0	0	-0.3011730611	-1.644263148	20.75762558	1.0
[RightHandRing3]
42	-29.37700081	0	0	-0.327654928	-1.705322504	21.58039474	1.0
43	-29.37700081	0	0	-0.30193609	-1.641735196	20.73245811	1.0
44	-29.37700081	0	0	-0.275559485	-1.575060248	19.84594154	1.0
45	-29.37700081	0	0	-0.220154047	-1.412202835	17.72057724	1.0
[RightHandRing4]
42	-26.47500038	0	0	0	0	0	1.0
43	-26.47500038	0	0	0	0	0	1.0
44	-26.47500038	0	0	0	0	0	1.0
45	-26.47500038	0	0	0	0	0	1.0
[RightHandMiddle1]
42	-95.32500458	0	0	-1.106169581	-3.042755365	21.39431	1.0
43	-95.32500458	0	0	-1.121549368	-3.00608182	21.62652206	1.0
44	-95.32500458	0	0	-1.123413324	-2.95101428	21.65376854	1.0
45	-95.32500458	0	0	-0.9556925893	-2.649199247	19.10481453	1.0
[RightHandMiddle2]
42	-36.98199844	0	0	-0.2475100905	-1.495299339	18.80126762	1.0
43	-36.98199844	0	0	-0.2459537983	-1.490653276	18.74072838	1.0
44	-36.98199844	0	0	-0.243421033	-1.483036995	18.64156914	1.0
45	-36.98199844	0	0	-0.2238590121	-1.423738956	17.8702755	1.0
[RightHandMiddle3]
42	-29.50900078	0	0	-0.2745165825	-1.574381471	19.81021118	1.0
43	-29.50900078	0	0	-0.2728779316	-1.569760442	19.74965668	1.0
44	-29.50900078	0	0	-0.2702108324	-1.562188029	19.65048027	1.0
45	-29.50900078	0	0	-0.2496115118	-1.503265381	18.87921715	1.0
[RightHandMiddle4]
42	-28.3390007	0	0.0009999999311	0	0	0	1.0
43	-28.3390007	0	0.0009999999311	0	0	0	1.0
44	-28.3390007	0	0.0009999999311	0	0	0	1.0
45	-28.3390007	0	0.0009999999311	0	0	0	1.0
[RightHandIndex1]
42	-91.08300018	-5.167999744	22.60099792	0.2872313261	-0.7692981362	11.18884182	1.0
43	-91.08300018	-5.167999744	22.60099792	0.2275938392	-0.7678414583	12.04709244	1.0
44	-91.08300018	-5.167999744	22.60099792	0.1659795493	-0.7185755968	12.79993916	1.0
45	-91.08300018	-5.167999744	22.60099792	0.01123098191	-0.03477362171	13.11035347	1.0
[RightHandIndex2]
42	-36.76399994	0	0	-0.1905519515	-1.315952182	16.47654915	1.0
43	-36.76399994	0	0	-0.1929811835	-1.324160337	16.58228683	1.0
44	-36.76399994	0	0	-0.1957359612	-1.333411336	16.70152664	1.0
45	-36.76399994	0	0	-0.2058209628	-1.366539478	17.12938881	1.0
[RightHandIndex3]
42	-28.83100128	0	0	-0.03583160043	-0.5754000545	7.122864246	1.0
43	-28.83100128	0	0	-0.03689437732	-0.5838931203	7.228549004	1.0
44	-28.83100128	0	0	-0.03810811415	-0.5934681296	7.347720146	1.0
45	-28.83100128	0	0	-0.04266148806	-0.6277951002	7.775218964	1.0
[RightHandIndex4]
42	-23.92700005	0	0	0	0	0	1.0
43	-23.92700005	0	0	0	0	0	1.0
44	-23.92700005	0	0	0	0	0	1.0
45	-23.92700005	0	0	0	0	0	1.0
[RightHandThumb1]
42	-24.64799881	-15.72700024	26.82600021	-2.197040319	0.5129437447	0.840652287	1.0
43	-24.64799881	-15.72700024	26.82600021	-2.242982626	0.5481364727	1.388405681	1.0
44	-24.64799881	-15.72700024	26.82600021	-2.289211988	0.6038106084	1.848360896	1.0
45	-24.64799881	-15.72700024	26.82600021	-2.371553898	0.8373075724	2.059866428	1.0
[RightHandThumb2]
42	-32.29800034	-18.64699936	18.64699936	22.99194908	-24.40815735	-24.65959167	1.0
43	-32.29800034	-18.64699936	18.64699936	23.55808449	-24.89490128	-24.94467354	1.0
44	-32.29800034	-18.64699936	18.64699936	24.06419182	-25.35987091	-25.20696068	1.0
45	-32.29800034	-18.64699936	18.64699936	24.38966942	-26.1329155	-25.48838997	1.0
[RightHandThumb3]
42	-26.52600098	-15.31399918	15.31399918	-15.21826935	-5.454566956	-11.11076164	1.0
43	-26.52600098	-15.31399918	15.31399918	-15.30838108	-5.249067783	-11.08432198	1.0
44	-26.52600098	-15.31399918	15.31399918	-15.38747787	-5.060321808	-11.06986427	1.0
45	-26.52600098	-15.31399918	15.31399918	-15.42003441	-4.866914749	-11.20353603	1.0
[RightHandThumb4]
42	-19.54599953	-11.28499985	11.28499985	0	0	0	1.0
43	-19.54599953	-11.28499985	11.28499985	0	0	0	1.0
44	-19.54599953	-11.28499985	11.28499985	0	0	0	1.0
45	-19.54599953	-11.28499985	11.28499985	0	0	0	1.0
[LeftUpLeg]
42	82.07800293	-67.51699829	-15.99599934	-16.48182106	16.87993813	9.741559982	1.0
43	82.07800293	-67.51699829	-15.99599934	-15.44944096	16.77195549	9.560881615	1.0
44	82.07800293	-67.51699829	-15.99599934	-14.44516277	16.66960716	9.385760307	1.0
45	82.07800293	-67.51699829	-15.99599934	-13.75962067	16.66468048	9.242297173	1.0
[LeftLeg]
42	0	-443.7049866	2.845999956	20.64849091	-0.4358872175	4.239512444	1.0
43	0	-443.7049866	2.845999956	20.01180267	-0.04614052549	4.386322498	1.0
44	0	-443.7049866	2.845999956	19.38401222	0.322671771	4.526474476	1.0
45	0	-443.7049866	2.845999956	18.83496094	0.5729888082	4.589796543	1.0
[LeftFoot]
42	0	-444.2789917	-29.8219986	-1.434653997	0.4080507457	-8.064805984	1.0
43	0	-444.2789917	-29.8219986	-1.380402207	0.4108729661	-8.07017231	1.0
44	0	-444.2789917	-29.8219986	-1.316836715	0.4145050049	-8.076387405	1.0
45	0	-444.2789917	-29.8219986	-1.052047968	0.4333425164	-8.065217972	1.0
[LeftToeBase]
42	0	-87.28699493	107.1060028	-4.523358345	-5.769543918e-07	1.208785989e-06	1.0
43	0	-87.28699493	107.1060028	-4.574559689	1.025897291e-06	1.156331791e-06	1.0
44	0	-87.28699493	107.1060028	-4.621603489	2.482434184e-06	1.112699465e-06	1.0
45	0	-87.28699493	107.1060028	-4.641303539	4.140063083e-06	6.211698178e-07	1.0
[RightUpLeg]
42	-82.07800293	-67.51699829	-15.99599934	-7.293955803	-9.519664764	7.182460785	1.0
43	-82.07800293	-67.51699829	-15.99599934	-6.537866592	-9.725953102	6.619494915	1.0
44	-82.07800293	-67.51699829	-15.99599934	-5.798258305	-9.924972534	6.076238632	1.0
45	-82.07800293	-67.51699829	-15.99599934	-5.243153572	-9.997757912	5.691510201	1.0
[RightLeg]
42	0	-443.7049866	2.861999989	15.78873253	-8.800935745	-5.833716869	1.0
43	0	-443.7049866	2.861999989	15.42862129	-8.859862328	-5.684418678	1.0
44	0	-443.7049866	2.861999989	15.06693745	-8.918480873	-5.537379265	1.0
45	0	-443.7049866	2.861999989	14.6207943	-8.98116684	-5.3878479	1.0
[RightFoot]
42	0	-444.2770081	-29.83799934	-7.685676098	-2.843332529	3.229102612	1.0
43	0	-444.2770081	-29.83799934	-7.6766572	-2.337699413	3.1744349	1.0
44	0	-444.2770081	-29.83799934	-7.657461166	-1.85512495	3.119985104	1.0
45	0	-444.2770081	-29.83799934	-7.47768116	-1.520665526	3.057065487	1.0
[RightToeBase]
42	0	-87.28699493	107.1060028	-7.065711975	5.390108072e-06	-1.413356244e-06	1.0
43	0	-87.28699493	107.1060028	-7.087899685	3.877814379e-06	-1.127045152e-06	1.0
44	0	-87.28699493	107.1060028	-7.107619762	3.152722229e-06	-8.297057548e-07	1.0
45	0	-87.28699493	107.1060028	-7.113328457	9.180329471e-06	5.358648281e-08	1.0
[EndOfFile]
